{
	"asset":{
		"generator":"Khronos glTF Blender I/O v3.5.30",
		"version":"2.0"
	},
	"scene":0,
	"scenes":[
		{
			"name":"Scene",
			"nodes":[
				0,
				1
			]
		}
	],
	"nodes":[
		{
			"mesh":0,
			"name":"globe_Cylinder.003",
			"rotation":[
				0.7071068286895752,
				0,
				0,
				0.7071068286895752
			]
		},
		{
			"mesh":1,
			"name":"Cube",
			"rotation":[
				0.6003621816635132,
				0.040803633630275726,
				-0.05415782332420349,
				0.7968483567237854
			]
		}
	],
	"meshes":[
		{
			"name":"globe_Cylinder.003",
			"primitives":[
				{
					"attributes":{
						"POSITION":0,
						"TEXCOORD_0":1,
						"NORMAL":2
					},
					"indices":3
				}
			]
		},
		{
			"name":"Cube.001",
			"primitives":[
				{
					"attributes":{
						"POSITION":4,
						"TEXCOORD_0":5,
						"NORMAL":6
					},
					"indices":7
				}
			]
		}
	],
	"accessors":[
		{
			"bufferView":0,
			"componentType":5126,
			"count":1022,
			"max":[
				1.1606149673461914,
				0.7465280294418335,
				0.0025080000050365925
			],
			"min":[
				-1.261051058769226,
				-0.7465280294418335,
				-2.9814910888671875
			],
			"type":"VEC3"
		},
		{
			"bufferView":1,
			"componentType":5126,
			"count":1022,
			"type":"VEC2"
		},
		{
			"bufferView":2,
			"componentType":5126,
			"count":1022,
			"type":"VEC3"
		},
		{
			"bufferView":3,
			"componentType":5123,
			"count":3486,
			"type":"SCALAR"
		},
		{
			"bufferView":4,
			"componentType":5126,
			"count":14,
			"max":[
				0,
				0,
				0
			],
			"min":[
				0,
				0,
				0
			],
			"type":"VEC3"
		},
		{
			"bufferView":5,
			"componentType":5126,
			"count":14,
			"type":"VEC2"
		},
		{
			"bufferView":6,
			"componentType":5126,
			"count":14,
			"type":"VEC3"
		},
		{
			"bufferView":7,
			"componentType":5123,
			"count":36,
			"type":"SCALAR"
		}
	],
	"bufferViews":[
		{
			"buffer":0,
			"byteLength":12264,
			"byteOffset":0,
			"target":34962
		},
		{
			"buffer":0,
			"byteLength":8176,
			"byteOffset":12264,
			"target":34962
		},
		{
			"buffer":0,
			"byteLength":12264,
			"byteOffset":20440,
			"target":34962
		},
		{
			"buffer":0,
			"byteLength":6972,
			"byteOffset":32704,
			"target":34963
		},
		{
			"buffer":0,
			"byteLength":168,
			"byteOffset":39676,
			"target":34962
		},
		{
			"buffer":0,
			"byteLength":112,
			"byteOffset":39844,
			"target":34962
		},
		{
			"buffer":0,
			"byteLength":168,
			"byteOffset":39956,
			"target":34962
		},
		{
			"buffer":0,
			"byteLength":72,
			"byteOffset":40124,
			"target":34963
		}
	],
	"buffers":[
		{
			"byteLength":40196,
			"uri":"data:application/octet-stream;base64,"
		}
	]
}
