{
	"asset":{
		"generator":"Khronos glTF Blender I/O v3.5.30",
		"version":"2.0"
	},
	"scene":0,
	"scenes":[
		{
			"name":"Scene",
			"nodes":[
				0
			]
		}
	],
	"nodes":[
		{
			"mesh":0,
			"name":"globe_Cylinder.003",
			"rotation":[
				0.7071068286895752,
				0,
				0,
				0.7071068286895752
			]
		}
	],
	"materials":[
		{
			"doubleSided":true,
			"name":"mat",
			"pbrMetallicRoughness":{
				"baseColorTexture":{
					"index":0
				},
				"metallicFactor":0,
				"roughnessFactor":0.5
			}
		}
	],
	"meshes":[
		{
			"name":"globe_Cylinder.003",
			"primitives":[
				{
					"attributes":{
						"POSITION":0,
						"TEXCOORD_0":1,
						"NORMAL":2
					},
					"indices":3,
					"material":0
				}
			]
		}
	],
	"textures":[
		{
			"sampler":0,
			"source":0
		}
	],
	"images":[
		{
			"bufferView":4,
			"mimeType":"image/png",
			"name":"diffuse"
		}
	],
	"accessors":[
		{
			"bufferView":0,
			"componentType":5126,
			"count":1022,
			"max":[
				1.1606149673461914,
				0.7465280294418335,
				0.0025080000050365925
			],
			"min":[
				-1.261051058769226,
				-0.7465280294418335,
				-2.9814910888671875
			],
			"type":"VEC3"
		},
		{
			"bufferView":1,
			"componentType":5126,
			"count":1022,
			"type":"VEC2"
		},
		{
			"bufferView":2,
			"componentType":5126,
			"count":1022,
			"type":"VEC3"
		},
		{
			"bufferView":3,
			"componentType":5123,
			"count":3486,
			"type":"SCALAR"
		}
	],
	"bufferViews":[
		{
			"buffer":0,
			"byteLength":12264,
			"byteOffset":0,
			"target":34962
		},
		{
			"buffer":0,
			"byteLength":8176,
			"byteOffset":12264,
			"target":34962
		},
		{
			"buffer":0,
			"byteLength":12264,
			"byteOffset":20440,
			"target":34962
		},
		{
			"buffer":0,
			"byteLength":6972,
			"byteOffset":32704,
			"target":34963
		},
		{
			"buffer":0,
			"byteLength":1130761,
			"byteOffset":39676
		}
	],
	"samplers":[
		{
			"magFilter":9729,
			"minFilter":9987
		}
	],
	"buffers":[
		{
			"byteLength":1170440,
			"uri":"data:application/octet-stream;base64,"
		}
	]
}
